<svg width="25" height="25" viewBox="0 0 25 25" fill="none" xmlns="http://www.w3.org/2000/svg">
<path d="M18.25 6.25C18.25 9.41131 15.6617 12 12.5 12C9.33834 12 6.75 9.41131 6.75 6.25C6.75 3.08869 9.33834 0.5 12.5 0.5C15.6617 0.5 18.25 3.08869 18.25 6.25ZM0.5 21.875C0.5 21.0247 0.925295 20.2405 1.70928 19.5197C2.49635 18.7961 3.60985 18.1718 4.88331 17.6614C7.43113 16.6404 10.493 16.125 12.5 16.125C14.507 16.125 17.5689 16.6404 20.1167 17.6614C21.3901 18.1718 22.5036 18.7961 23.2907 19.5197C24.0747 20.2405 24.5 21.0247 24.5 21.875V24.5H0.5V21.875Z" stroke="#097F78"/>
</svg>
