<svg width="30" height="25" viewBox="0 0 30 25" fill="none" xmlns="http://www.w3.org/2000/svg">
<path d="M18.4599 0.67856C16.4752 -0.226187 14.251 -0.226187 12.2663 0.67856L6.26991 3.4121C7.36204 3.52668 8.3605 4.19562 8.82401 5.24727C9.50769 6.79842 8.76872 8.59478 7.17347 9.25956L5.67111 9.88567C4.92456 10.1967 4.5009 10.3765 4.21488 10.5191C4.21331 10.5412 4.21183 10.5642 4.21045 10.5878L12.2664 14.2602C14.2511 15.1649 16.4753 15.1649 18.46 14.2602L27.8053 10C29.8382 9.07334 29.8382 5.8655 27.8053 4.93882L18.4599 0.67856Z" fill="#FF9245"/>
<path d="M5.58691 13.4648V18.5042C5.58691 19.8732 6.29016 21.1549 7.52179 21.8182C9.57263 22.9225 12.8552 24.4453 15.3637 24.4453C17.8721 24.4453 21.1547 22.9225 23.2056 21.8182C24.4372 21.1549 25.1404 19.8732 25.1404 18.5042V13.465L19.3498 16.1047C16.8017 17.2662 13.9258 17.2662 11.3777 16.1047L5.58691 13.4648Z" fill="#FF9245"/>
<path d="M6.34852 7.38763C6.88026 7.16603 7.12659 6.56725 6.8987 6.0502C6.67082 5.53316 6.05499 5.29365 5.52325 5.51523L3.97101 6.16209C3.1924 6.48652 2.53257 6.76148 2.01477 7.04472C1.46379 7.34611 0.989562 7.69984 0.634358 8.22363C0.279141 8.74744 0.131582 9.3106 0.0637315 9.92172C-4.92363e-05 10.496 -2.54579e-05 11.1941 1.07897e-06 12.0178V15.9579C1.07897e-06 16.5205 0.468992 16.9765 1.04751 16.9765C1.62604 16.9765 2.09502 16.5205 2.09502 15.9579V12.0706C2.09502 11.18 2.09643 10.5926 2.14664 10.1404C2.19411 9.71285 2.27723 9.50156 2.38336 9.34504C2.4895 9.18853 2.65651 9.03102 3.04197 8.82016C3.44959 8.59718 4.00428 8.36454 4.84614 8.01371L6.34852 7.38763Z" fill="#FF9245"/>
</svg>
