<svg width="28" height="27" viewBox="0 0 28 27" fill="none" xmlns="http://www.w3.org/2000/svg">
<path d="M27.1264 2.83349L23.9141 2.34131H3.86183L1 2.85244L1.01943 25.6632L18.1904 25.6443L27.1459 19.2838L27.1264 2.83349Z" fill="#FF9245"/>
<path d="M25.4366 19.7354H18.4792V22.0997C18.4792 22.3914 18.2364 22.6275 17.9364 22.6275C17.6639 22.6275 17.4483 22.4295 17.4092 22.1752V25.0389L18.0386 25.0387L25.4366 19.7354Z" fill="#097F78"/>
<path d="M19.2075 1.21777V4.19241" stroke="#097F78" stroke-miterlimit="10" stroke-linecap="round" stroke-linejoin="round"/>
<path d="M16.6235 1.21777V4.19241" stroke="#097F78" stroke-miterlimit="10" stroke-linecap="round" stroke-linejoin="round"/>
<path d="M14.0396 1.21777V4.19241" stroke="#097F78" stroke-miterlimit="10" stroke-linecap="round" stroke-linejoin="round"/>
<path d="M21.7915 1.21777V4.19241" stroke="#097F78" stroke-miterlimit="10" stroke-linecap="round" stroke-linejoin="round"/>
<path d="M11.4556 1.21777V4.19241" stroke="#097F78" stroke-miterlimit="10" stroke-linecap="round" stroke-linejoin="round"/>
<path d="M8.87158 1.21777V4.19241" stroke="#097F78" stroke-miterlimit="10" stroke-linecap="round" stroke-linejoin="round"/>
<path d="M6.2876 1.21777V4.19241" stroke="#097F78" stroke-miterlimit="10" stroke-linecap="round" stroke-linejoin="round"/>
<path d="M3.74219 9.34424H24.2594" stroke="white" stroke-miterlimit="10" stroke-linecap="round" stroke-linejoin="round"/>
<path d="M3.74219 14.8726H24.2594" stroke="white" stroke-miterlimit="10" stroke-linecap="round" stroke-linejoin="round"/>
<path d="M3.74219 20.4004H15.7522" stroke="white" stroke-miterlimit="10" stroke-linecap="round" stroke-linejoin="round"/>
<path d="M8.604 6.75391V23.1717" stroke="white" stroke-miterlimit="10" stroke-linecap="round" stroke-linejoin="round"/>
<path d="M24.0083 2.81104H27.0669L27.087 19.2074L18.217 25.5666L1.0318 25.5694L1.01172 2.81104H4.07277" stroke="#097F78" stroke-miterlimit="10" stroke-linecap="round" stroke-linejoin="round"/>
<path d="M26.951 19.2075H17.936V22.0996" stroke="#097F78" stroke-miterlimit="10" stroke-linecap="round" stroke-linejoin="round"/>
</svg>
