<svg width="19" height="25" viewBox="0 0 19 25" fill="none" xmlns="http://www.w3.org/2000/svg">
<path fill-rule="evenodd" clip-rule="evenodd" d="M0.666016 3.0418C0.666016 2.23506 0.967849 1.46137 1.50512 0.890922C2.04239 0.320474 2.77108 0 3.53089 0H16.136C16.8956 0.000241961 17.6241 0.320823 18.1612 0.891244C18.6983 1.46167 19 2.23522 19 3.0418V6.38745C19 6.54875 18.9397 6.70344 18.8322 6.8175C18.7248 6.93156 18.5791 6.99563 18.4272 6.99563C18.2753 6.99563 18.1296 6.93156 18.0222 6.8175C17.9147 6.70344 17.8544 6.54875 17.8544 6.38745V3.0418C17.8544 2.55778 17.6733 2.09359 17.351 1.75134C17.0286 1.40908 16.5914 1.21681 16.1356 1.21681H3.53046C3.07459 1.21681 2.6374 1.40908 2.31506 1.75134C1.99271 2.09359 1.81162 2.55778 1.81162 3.0418V21.2917C1.81162 21.7757 1.99271 22.2399 2.31506 22.5821C2.6374 22.9244 3.07459 23.1167 3.53046 23.1167H16.1356C16.5914 23.1167 17.0286 22.9244 17.351 22.5821C17.6733 22.2399 17.8544 21.7757 17.8544 21.2917V17.9456C17.8544 17.7843 17.9147 17.6296 18.0222 17.5155C18.1296 17.4015 18.2753 17.3374 18.4272 17.3374C18.5791 17.3374 18.7248 17.4015 18.8322 17.5155C18.9397 17.6296 19 17.7843 19 17.9456V21.2917C18.9999 22.0982 18.6981 22.8717 18.1609 23.4421C17.6237 24.0124 16.8952 24.3329 16.1356 24.333H3.53046C2.77087 24.3328 2.04246 24.0122 1.5054 23.4419C0.968325 22.8716 0.666559 22.0982 0.666445 21.2917L0.666016 3.0418Z" fill="#005F59"/>
<path fill-rule="evenodd" clip-rule="evenodd" d="M15.157 8.69471C14.9335 8.93242 14.9335 9.31749 15.157 9.5552L17.0438 11.5581H8.11403C7.96206 11.5581 7.81631 11.6222 7.70885 11.7363C7.60139 11.8504 7.54102 12.0052 7.54102 12.1665C7.54102 12.3279 7.60139 12.4826 7.70885 12.5967C7.81631 12.7108 7.96206 12.7749 8.11403 12.7749H17.0434L15.157 14.7779C15.1038 14.8343 15.0615 14.9014 15.0327 14.9752C15.0039 15.049 14.9891 15.1281 14.9891 15.2079C14.989 15.2878 15.0038 15.3669 15.0326 15.4407C15.0614 15.5145 15.1036 15.5816 15.1568 15.6381C15.2099 15.6946 15.2731 15.7394 15.3426 15.77C15.4121 15.8006 15.4866 15.8164 15.5618 15.8164C15.6371 15.8164 15.7116 15.8007 15.7811 15.7701C15.8506 15.7396 15.9138 15.6948 15.967 15.6383L18.8318 12.597C19.0553 12.3597 19.0553 11.9742 18.8318 11.7365L15.967 8.69517C15.9138 8.63864 15.8506 8.59379 15.7811 8.56319C15.7115 8.53259 15.637 8.51685 15.5618 8.51685C15.4865 8.51685 15.412 8.53259 15.3424 8.56319C15.2729 8.59379 15.2097 8.63864 15.1565 8.69517L15.157 8.69471Z" fill="#005F59"/>
</svg>
